<svg width="1573" height="512" viewBox="0 0 1573 512" fill="none" xmlns="http://www.w3.org/2000/svg">
<path d="M507.029 108.164L107.376 0L51.9141 209.073L213.373 252.771L225.579 206.759L463.771 271.225L507.029 108.164Z" fill="#FFD000"/>
<path d="M0 403.836L399.652 512L455.115 302.928L293.655 259.229L281.449 305.242L43.2567 240.776L0 403.836Z" fill="#3974B8"/>
<path d="M678.629 162.9C685.296 149.3 695.163 138.633 708.229 130.9C721.296 122.9 736.096 118.9 752.629 118.9V160.5C730.496 160.5 712.629 166.5 699.029 178.5C685.429 190.5 678.629 206.367 678.629 226.1V330.5H629.829V123.7H678.629V162.9ZM874.742 335.3C854.742 335.3 836.208 330.5 819.142 320.9C802.075 311.033 788.475 297.833 778.342 281.3C768.475 264.5 763.542 246.367 763.542 226.9C763.542 207.433 768.475 189.433 778.342 172.9C788.475 156.367 802.075 143.3 819.142 133.7C836.208 123.833 854.742 118.9 874.742 118.9C894.742 118.9 913.142 123.833 929.942 133.7C947.008 143.3 960.475 156.367 970.342 172.9C980.208 189.433 985.142 207.433 985.142 226.9C985.142 246.367 980.208 264.5 970.342 281.3C960.475 297.833 947.008 311.033 929.942 320.9C913.142 330.5 894.742 335.3 874.742 335.3ZM874.742 293.7C885.942 293.7 896.342 290.767 905.942 284.9C915.542 278.767 923.142 270.633 928.742 260.5C934.342 250.1 937.142 238.9 937.142 226.9C937.142 214.9 934.342 203.833 928.742 193.7C923.142 183.567 915.542 175.567 905.942 169.7C896.342 163.567 885.942 160.5 874.742 160.5C863.275 160.5 852.742 163.567 843.142 169.7C833.542 175.567 825.808 183.567 819.942 193.7C814.342 203.833 811.542 214.9 811.542 226.9C811.542 238.9 814.342 250.1 819.942 260.5C825.808 270.633 833.542 278.767 843.142 284.9C852.742 290.767 863.275 293.7 874.742 293.7ZM1049.68 335.3C1040.62 335.3 1032.88 332.233 1026.48 326.1C1020.35 319.7 1017.28 312.1 1017.28 303.3C1017.28 295.033 1020.35 287.833 1026.48 281.7C1032.88 275.567 1040.62 272.5 1049.68 272.5C1057.95 272.5 1065.15 275.567 1071.28 281.7C1077.42 287.833 1080.48 295.033 1080.48 303.3C1080.48 312.1 1077.42 319.7 1071.28 326.1C1065.42 332.233 1058.22 335.3 1049.68 335.3Z" fill="#FFD000"/>
<path d="M1246.36 118.9C1264.49 118.9 1280.76 123.567 1295.16 132.9C1309.56 141.967 1320.89 154.767 1329.16 171.3C1337.43 187.567 1341.56 206.1 1341.56 226.9C1341.56 247.7 1337.43 266.367 1329.16 282.9C1320.89 299.433 1309.56 312.367 1295.16 321.7C1280.76 330.767 1264.49 335.3 1246.36 335.3C1231.43 335.3 1217.69 332.1 1205.16 325.7C1192.89 319.033 1182.76 309.833 1174.76 298.1V399.3H1125.96V123.7H1174.76V156.1C1182.76 144.367 1192.89 135.3 1205.16 128.9C1217.69 122.233 1231.43 118.9 1246.36 118.9ZM1233.16 293.7C1250.76 293.7 1265.16 287.433 1276.36 274.9C1287.56 262.367 1293.16 246.367 1293.16 226.9C1293.16 207.433 1287.56 191.567 1276.36 179.3C1265.16 166.767 1250.76 160.5 1233.16 160.5C1216.09 160.5 1202.09 166.767 1191.16 179.3C1180.23 191.567 1174.76 207.433 1174.76 226.9C1174.76 239.7 1177.16 251.167 1181.96 261.3C1187.03 271.433 1193.96 279.433 1202.76 285.3C1211.83 290.9 1221.96 293.7 1233.16 293.7ZM1405.92 402.5C1397.92 402.5 1389.78 401.567 1381.52 399.7C1373.52 397.833 1366.45 395.167 1360.32 391.7L1370.72 356.5C1380.32 361.567 1389.12 364.1 1397.12 364.1C1409.12 364.1 1418.32 358.9 1424.72 348.5L1432.32 332.1L1344.72 123.7H1396.32L1456.72 278.1L1513.92 123.7H1564.32L1476.32 344.9C1461.65 382.767 1438.18 401.967 1405.92 402.5Z" fill="#3974B8"/>
<path d="M686.829 372.64V470.5H669.749V459.16C666.949 463.267 663.356 466.487 658.969 468.82C654.676 471.06 649.916 472.18 644.689 472.18C638.343 472.18 632.649 470.593 627.609 467.42C622.569 464.153 618.603 459.627 615.709 453.84C612.816 448.053 611.369 441.52 611.369 434.24C611.369 426.96 612.816 420.473 615.709 414.78C618.603 408.993 622.569 404.513 627.609 401.34C632.649 398.073 638.343 396.44 644.689 396.44C649.916 396.44 654.676 397.607 658.969 399.94C663.356 402.18 666.949 405.353 669.749 409.46V372.64H686.829ZM649.309 457.62C653.229 457.62 656.729 456.64 659.809 454.68C662.983 452.627 665.409 449.827 667.089 446.28C668.863 442.733 669.749 438.72 669.749 434.24C669.749 427.427 667.836 421.873 664.009 417.58C660.183 413.193 655.283 411 649.309 411C643.149 411 638.109 413.193 634.189 417.58C630.269 421.873 628.309 427.427 628.309 434.24C628.309 441.053 630.269 446.653 634.189 451.04C638.109 455.427 643.149 457.62 649.309 457.62ZM703.33 398.12H720.41V470.5H703.33V398.12ZM711.87 387.2C709.163 387.2 706.83 386.22 704.87 384.26C703.003 382.3 702.07 380.013 702.07 377.4C702.07 374.787 703.003 372.547 704.87 370.68C706.83 368.72 709.163 367.74 711.87 367.74C714.483 367.74 716.723 368.72 718.59 370.68C720.456 372.547 721.39 374.787 721.39 377.4C721.39 380.013 720.456 382.3 718.59 384.26C716.723 386.22 714.483 387.2 711.87 387.2ZM762.619 472.18C757.019 472.18 751.372 471.247 745.679 469.38C740.079 467.42 735.132 464.76 730.839 461.4L738.119 450.2C741.945 453 746.005 455.193 750.299 456.78C754.685 458.273 758.885 459.02 762.899 459.02C766.725 459.02 769.712 458.273 771.859 456.78C774.099 455.287 775.219 453.28 775.219 450.76C775.219 448.147 773.959 446.187 771.439 444.88C769.012 443.573 765.139 442.22 759.819 440.82C753.939 439.233 749.179 437.647 745.539 436.06C741.992 434.38 739.192 432.187 737.139 429.48C735.179 426.773 734.199 423.32 734.199 419.12C734.199 414.64 735.319 410.72 737.559 407.36C739.892 403.907 743.112 401.247 747.219 399.38C751.419 397.42 756.179 396.44 761.499 396.44C766.259 396.44 771.019 397.233 775.779 398.82C780.632 400.313 785.065 402.413 789.079 405.12L782.499 416.6C778.952 414.36 775.359 412.633 771.719 411.42C768.079 410.113 764.672 409.46 761.499 409.46C758.139 409.46 755.385 410.207 753.239 411.7C751.092 413.1 750.019 415.013 750.019 417.44C750.019 419.027 750.532 420.287 751.559 421.22C752.585 422.153 754.032 422.993 755.899 423.74C757.765 424.393 760.985 425.42 765.559 426.82C770.879 428.313 775.265 429.807 778.719 431.3C782.172 432.793 785.065 434.987 787.399 437.88C789.825 440.773 791.039 444.553 791.039 449.22C791.039 456.127 788.425 461.68 783.199 465.88C777.972 470.08 771.112 472.18 762.619 472.18ZM835.94 472.18C829.034 472.18 822.594 470.453 816.62 467C810.74 463.547 806.027 458.927 802.48 453.14C798.934 447.26 797.16 440.96 797.16 434.24C797.16 427.52 798.934 421.267 802.48 415.48C806.027 409.693 810.787 405.073 816.76 401.62C822.734 398.167 829.174 396.44 836.08 396.44C841.494 396.44 846.534 397.467 851.2 399.52C855.867 401.573 860.02 404.467 863.66 408.2L852.18 418.28C850.127 416.04 847.654 414.267 844.76 412.96C841.867 411.653 838.927 411 835.94 411C832.02 411 828.38 412.073 825.02 414.22C821.66 416.273 819 419.12 817.04 422.76C815.08 426.307 814.1 430.133 814.1 434.24C814.1 438.44 815.08 442.36 817.04 446C819.094 449.547 821.8 452.393 825.16 454.54C828.52 456.593 832.16 457.62 836.08 457.62C839.16 457.62 842.147 456.967 845.04 455.66C847.934 454.26 850.454 452.393 852.6 450.06L864.08 460C860.347 463.827 856.1 466.813 851.34 468.96C846.674 471.107 841.54 472.18 835.94 472.18ZM909.772 472.18C902.772 472.18 896.285 470.5 890.312 467.14C884.338 463.687 879.578 459.067 876.032 453.28C872.578 447.4 870.852 441.053 870.852 434.24C870.852 427.427 872.578 421.127 876.032 415.34C879.578 409.553 884.338 404.98 890.312 401.62C896.285 398.167 902.772 396.44 909.772 396.44C916.772 396.44 923.212 398.167 929.092 401.62C935.065 404.98 939.778 409.553 943.232 415.34C946.685 421.127 948.412 427.427 948.412 434.24C948.412 441.053 946.685 447.4 943.232 453.28C939.778 459.067 935.065 463.687 929.092 467.14C923.212 470.5 916.772 472.18 909.772 472.18ZM909.772 457.62C913.692 457.62 917.332 456.593 920.692 454.54C924.052 452.393 926.712 449.547 928.672 446C930.632 442.36 931.612 438.44 931.612 434.24C931.612 430.04 930.632 426.167 928.672 422.62C926.712 419.073 924.052 416.273 920.692 414.22C917.332 412.073 913.692 411 909.772 411C905.758 411 902.072 412.073 898.712 414.22C895.352 416.273 892.645 419.073 890.592 422.62C888.632 426.167 887.652 430.04 887.652 434.24C887.652 438.44 888.632 442.36 890.592 446C892.645 449.547 895.352 452.393 898.712 454.54C902.072 456.593 905.758 457.62 909.772 457.62ZM977.441 411.84C979.774 407.08 983.228 403.347 987.801 400.64C992.374 397.84 997.554 396.44 1003.34 396.44V411C995.594 411 989.341 413.1 984.581 417.3C979.821 421.5 977.441 427.053 977.441 433.96V470.5H960.361V398.12H977.441V411.84ZM1083.45 372.64V470.5H1066.37V459.16C1063.57 463.267 1059.98 466.487 1055.59 468.82C1051.3 471.06 1046.54 472.18 1041.31 472.18C1034.96 472.18 1029.27 470.593 1024.23 467.42C1019.19 464.153 1015.22 459.627 1012.33 453.84C1009.44 448.053 1007.99 441.52 1007.99 434.24C1007.99 426.96 1009.44 420.473 1012.33 414.78C1015.22 408.993 1019.19 404.513 1024.23 401.34C1029.27 398.073 1034.96 396.44 1041.31 396.44C1046.54 396.44 1051.3 397.607 1055.59 399.94C1059.98 402.18 1063.57 405.353 1066.37 409.46V372.64H1083.45ZM1045.93 457.62C1049.85 457.62 1053.35 456.64 1056.43 454.68C1059.6 452.627 1062.03 449.827 1063.71 446.28C1065.48 442.733 1066.37 438.72 1066.37 434.24C1066.37 427.427 1064.46 421.873 1060.63 417.58C1056.8 413.193 1051.9 411 1045.93 411C1039.77 411 1034.73 413.193 1030.81 417.58C1026.89 421.873 1024.93 427.427 1024.93 434.24C1024.93 441.053 1026.89 446.653 1030.81 451.04C1034.73 455.427 1039.77 457.62 1045.93 457.62Z" fill="#5865F2"/>
</svg>
